<svg width="24" height="47" viewBox="0 0 24 47" fill="none" xmlns="http://www.w3.org/2000/svg">
<path d="M6.40011 1.51008C6.12954 1.56524 5.95491 1.82931 6.01008 2.09989L6.90906 6.50918C6.96423 6.77975 7.22829 6.95438 7.49887 6.89921C7.76944 6.84404 7.94407 6.57998 7.8889 6.3094L7.08981 2.39003L11.0092 1.59094C11.2798 1.53577 11.4544 1.27171 11.3992 1.00113C11.344 0.730556 11.08 0.555932 10.8094 0.611098L6.40011 1.51008ZM1.14367 46.9789C13.7284 43.2035 21.5232 36.0784 22.9183 27.6693C24.3154 19.2475 19.248 9.83071 6.7758 1.58294L6.2242 2.41706C18.552 10.5693 23.2346 19.6525 21.9317 27.5057C20.6268 35.3716 13.2716 42.2965 0.856326 46.0211L1.14367 46.9789Z" fill="white"/>
</svg>
