<svg width="15" height="351" viewBox="0 0 15 351" fill="none" xmlns="http://www.w3.org/2000/svg">
<path fill-rule="evenodd" clip-rule="evenodd" d="M3.69334 2.73879C3.83958 4.43958 3.6698 5.47758 3.24471 5.47758C2.86796 5.47758 2.55565 6.47861 2.55069 7.70285C2.54388 9.21055 2.36913 9.6289 2.00849 8.99898C0.47669 6.32798 -0.0593167 12.8963 0.00512796 33.5502C0.0949787 62.2164 1.39007 82.0014 3.86933 92.5711C4.58008 95.6029 5.02561 99.3859 4.91717 101.472L4.7288 105.101C4.7288 106.014 4.5569 107.977 3.86933 108.525C3.19017 109.066 3.70337 114.874 4.05642 117.815L4.06948 117.923C4.29627 119.815 4.73561 127.872 5.04482 135.827C5.35403 143.782 6.06045 153.988 6.6138 158.507C7.3481 164.498 7.49868 168.672 7.16902 173.913C6.56857 183.469 6.35726 233.358 6.90814 235.536L7.34128 237.248C8.50823 238.891 8.32943 244.13 8.09417 246.545L7.71246 252.021C7.50178 255.033 7.68086 262.492 8.10966 268.598C8.94186 280.458 8.72622 282.628 5.84418 291.345C4.86016 294.322 4.77155 295.904 5.17557 303.327C6.4025 325.903 7.02712 338.226 7.11821 341.664C7.22603 345.741 7.81904 347.318 10.1527 349.728C12.8092 352.474 14.6322 350.561 13.6804 346.026C13.3743 344.569 13.1085 339.216 13.0899 334.132C13.0713 329.048 12.7701 321.038 12.42 316.33L12.3415 315.275C11.41 302.755 11.1463 299.211 11.7748 295.872C12.023 294.554 12.4102 293.268 12.9504 291.474L13.0645 291.094C15.0579 284.464 15.5456 276.877 14.3688 270.798C12.6177 261.751 12.4776 260.145 12.8649 253.526C13.0571 250.24 13.1978 248.464 13.4369 247.518C13.7754 245.502 14.2752 241.178 13.9652 238.014C13.8112 237.777 13.7423 237.34 13.7422 236.563C13.7421 235.769 13.8138 234.621 13.94 232.968C14.1631 230.05 14.5157 211.024 14.7239 190.688C15.1168 152.307 14.5702 133.718 12.7714 124.273C12.6069 123.41 12.4561 122.626 12.3191 121.916L12.3187 121.913L12.3184 121.912C11.3932 117.11 11.1067 115.623 11.5944 115.182C12.2468 113.42 13.5058 109.689 13.3229 108.867C13.2434 108.51 13.1248 107.531 13.0018 106.377C12.6977 105.836 12.6414 104.632 12.5768 101.969C12.5117 99.3044 12.1542 95.6844 11.7811 93.9234C11.4081 92.163 11.141 85.6385 11.1881 79.4249C11.2513 70.9648 11.0276 67.1818 10.2971 64.3616C9.6018 61.6776 9.23558 56.3657 9.02304 45.8747C8.85945 37.7782 8.41639 28.9969 8.03964 26.3609C7.66227 23.7248 7.35182 20.9517 7.34996 20.1986C7.3419 17.0353 5.71096 5.49675 5.0913 4.21705C4.72136 3.45361 4.41897 2.1924 4.41897 1.41459C4.41897 0.63677 4.20271 0 3.93811 0C3.67352 0 3.56322 1.23246 3.69334 2.73879Z" fill="#DE9389"/>
</svg>
