<svg width="73" height="63" viewBox="0 0 73 63" fill="none" xmlns="http://www.w3.org/2000/svg">
<path fill-rule="evenodd" clip-rule="evenodd" d="M46.5131 0.803607C41.3193 2.7528 32.5635 10.8091 32.5635 13.6381C32.5635 15.4155 31.4923 14.7938 30.4389 12.4051C27.4919 5.72158 17.8768 1.49226 10.2864 3.54036C6.04375 4.68563 2.01667 8.87702 0.73135 13.4856C-1.19255 20.3825 0.68616 28.2343 6.28674 36.7041C9.2263 41.1499 12.7126 44.3246 20.1741 49.3497C25.5873 52.996 30.4996 57.4521 32.9799 60.966L34.4156 63L38.7797 60.7801C41.18 59.559 43.6062 58.5602 44.1714 58.5602C45.556 58.5602 53.7909 54.348 57.0105 51.9928C70.383 42.2104 76.4985 24.5568 70.966 11.7082C69.0977 7.36958 66.413 4.58449 61.8399 2.24338C57.3765 -0.0419595 50.4898 -0.688964 46.5131 0.803607Z" fill="#B72929"/>
</svg>
