<svg width="78" height="11" viewBox="0 0 78 11" fill="none" xmlns="http://www.w3.org/2000/svg">
<path d="M0 0.99939H7.66052V1.68821H4.19821V10.2633H3.46231V1.68821H0V0.99939Z" fill="white"/>
<path d="M18.5309 5.88242H12.6879V10.2632H11.952V0.999268H12.6879V5.1936H18.5309V0.999268H19.2668V10.261H18.5309V5.88242Z" fill="white"/>
<path d="M24.907 0.999268H30.0805V1.68809H25.6429V5.21993H29.6815V5.90874H25.6429V9.5744H30.2157V10.2632H24.907V0.999268Z" fill="white"/>
<path d="M34.9884 0.999268H40.4035V2.98456H37.1274V4.94352H40.0023V6.92881H37.1274V10.2632H34.9884V0.999268Z" fill="white"/>
<path d="M44.8179 0.999268H46.9569V8.27574H50.7672V10.261H44.8179V0.999268Z" fill="white"/>
<path d="M54.7767 0.999268H60.3248V2.98456H56.9157V4.61227H59.9236V6.59756H56.9157V8.27793H60.4578V10.2632H54.7767V0.999268Z" fill="white"/>
<path d="M69.8314 5.53801L72.9457 10.261H70.4321L68.4261 7.15037L66.4467 10.261H63.9331L67.0474 5.53801L64.0838 0.999268H66.5974L68.4971 3.9761L70.3147 0.999268H72.8283L69.8314 5.53801Z" fill="white"/>
<path d="M75.9248 3.75461C75.1269 3.75461 74.4774 3.11186 74.4774 2.32213C74.4774 1.5324 75.1269 0.889648 75.9248 0.889648C76.7228 0.889648 77.3723 1.5324 77.3723 2.32213C77.3723 3.11186 76.7228 3.75461 75.9248 3.75461ZM75.9248 1.10902C75.2488 1.10902 74.6991 1.65305 74.6991 2.32213C74.6991 2.9912 75.2488 3.53524 75.9248 3.53524C76.6009 3.53524 77.1506 2.9912 77.1506 2.32213C77.1506 1.65305 76.6009 1.10902 75.9248 1.10902Z" fill="white"/>
<path d="M75.4692 2.96048V1.67059C75.5423 1.67059 75.8748 1.6662 75.9125 1.6662C76.2671 1.6662 76.3935 1.84169 76.3935 2.07861C76.3935 2.31772 76.245 2.41644 76.174 2.45154L76.5531 2.96048H76.1918L75.8748 2.50858H75.764V2.96048H75.4692ZM75.7662 1.94699V2.23217H75.8748C75.9879 2.23217 76.0787 2.19268 76.0787 2.083C76.0787 2.01061 76.0411 1.9426 75.8992 1.9426C75.8526 1.9426 75.8283 1.9448 75.7662 1.94699Z" fill="white"/>
</svg>
