<svg width="96" height="13" viewBox="0 0 96 13" fill="none" xmlns="http://www.w3.org/2000/svg">
<path d="M0 0.901611H9.50493V1.78345H5.20901V12.7614H4.29592V1.78345H0V0.901611Z" fill="white"/>
<path d="M22.9939 7.15309H15.7441V12.7614H14.8311V0.901611H15.7441V6.27125H22.9939V0.901611H23.9069V12.7586H22.9939V7.15309Z" fill="white"/>
<path d="M30.9029 0.901611H37.322V1.78345H31.816V6.30495H36.827V7.18679H31.816V11.8796H37.4898V12.7614H30.9029V0.901611Z" fill="white"/>
<path d="M43.4124 0.901611H50.1313V3.4432H46.0664V5.95109H49.6335V8.49269H46.0664V12.7614H43.4124V0.901611Z" fill="white"/>
<path d="M55.6068 0.901611H58.2608V10.217H62.9885V12.7586H55.6068V0.901611Z" fill="white"/>
<path d="M67.966 0.901611H74.8499V3.4432H70.62V5.52703H74.3521V8.06862H70.62V10.2198H75.0149V12.7614H67.966V0.901611Z" fill="white"/>
<path d="M86.6453 6.71217L90.5094 12.7586H87.3906L84.9016 8.77634L82.4456 12.7586H79.3268L83.1909 6.71217L79.5138 0.901611H82.6326L84.9896 4.7126L87.2448 0.901611H90.3636L86.6453 6.71217Z" fill="white"/>
<path d="M94.206 4.42948C93.2159 4.42948 92.41 3.60662 92.41 2.5956C92.41 1.58458 93.2159 0.761719 94.206 0.761719C95.1961 0.761719 96.0019 1.58458 96.0019 2.5956C96.0019 3.60662 95.1961 4.42948 94.206 4.42948ZM94.206 1.04256C93.3671 1.04256 92.6851 1.73904 92.6851 2.5956C92.6851 3.45216 93.3671 4.14864 94.206 4.14864C95.0448 4.14864 95.7269 3.45216 95.7269 2.5956C95.7269 1.73904 95.0448 1.04256 94.206 1.04256Z" fill="white"/>
<path d="M93.6397 3.41244V1.76111C93.7305 1.76111 94.143 1.75549 94.1898 1.75549C94.6298 1.75549 94.7866 1.98016 94.7866 2.28347C94.7866 2.58958 94.6023 2.71596 94.5143 2.7609L94.9846 3.41244H94.5363L94.143 2.83391H94.0055V3.41244H93.6397ZM94.0082 2.11497V2.48006H94.143C94.2833 2.48006 94.396 2.42951 94.396 2.28909C94.396 2.19641 94.3493 2.10935 94.1733 2.10935C94.1155 2.10935 94.0853 2.11216 94.0082 2.11497Z" fill="white"/>
</svg>
