<svg width="305" height="298" viewBox="0 0 305 298" fill="none" xmlns="http://www.w3.org/2000/svg">
<path fill-rule="evenodd" clip-rule="evenodd" d="M302.123 294.649C300.569 293.297 299.83 292.266 300.175 291.929C300.48 291.63 299.888 290.519 298.859 289.458C297.592 288.15 297.381 287.651 298.205 287.909C301.7 289.002 296.591 282.905 279.105 265.122C254.836 240.44 237.086 224.381 226.155 217.219C223.02 215.164 219.466 212.25 217.793 210.363L214.882 207.08C214.112 206.292 212.594 204.46 212.689 203.443C212.783 202.438 207.464 197.829 204.695 195.568L204.593 195.485C202.813 194.032 195.656 187.422 188.691 180.798C181.725 174.174 172.538 165.921 168.275 162.457C162.624 157.866 158.979 154.381 154.822 149.594C147.243 140.867 105.304 97.6202 103.019 96.1759L101.223 95.041C98.89 94.5465 94.6125 89.8807 92.7654 87.6096L88.4524 82.5785C86.0808 79.8108 79.639 73.5111 74.138 68.5788C63.4525 58.9967 61.7958 56.9522 56.7738 47.142C55.0585 43.7917 53.7947 42.3552 47.2018 36.2657C27.1516 17.7434 16.2437 7.59719 13.268 4.70077C9.73905 1.26538 7.92801 0.374131 4.00179 0.141154C-0.468682 -0.125175 -0.331388 2.97101 4.26768 6.13273C5.7462 7.14896 10.4794 11.56 14.7856 15.9352C19.0919 20.3104 26.0978 26.9893 30.3549 30.7767L31.3091 31.6256C42.6319 41.6985 45.837 44.5499 48.1459 47.931C49.0575 49.2659 49.8294 50.6834 50.9061 52.6606L51.1337 53.0784C55.1143 60.3826 61.1237 67.321 67.2084 71.6378C76.2639 78.0625 77.7332 79.3386 83.0063 85.3609C85.6235 88.35 87.0092 89.9956 87.6135 91.0015C89.0409 93.0105 92.2858 97.1404 95.2072 99.6265C95.5326 99.7096 95.9572 100.032 96.6131 100.703C97.2831 101.388 98.1942 102.437 99.487 103.964C101.769 106.66 117.543 123.369 134.539 141.094C166.618 174.547 182.751 190.166 192.182 196.897C193.044 197.512 193.827 198.068 194.538 198.574L194.54 198.575L194.541 198.576C199.345 201.99 200.832 203.047 200.808 203.814C201.768 205.853 203.897 210.072 204.738 210.636C205.104 210.882 206.027 211.633 207.1 212.532C207.804 212.758 208.866 213.754 211.166 216.002C213.467 218.251 216.813 221.094 218.601 222.319C220.39 223.543 226.113 228.966 231.32 234.368C238.41 241.724 241.784 244.813 244.757 246.67C247.586 248.437 252.366 252.733 261.394 261.624C268.36 268.485 276.131 275.717 278.662 277.695C281.193 279.672 283.785 281.821 284.422 282.47C287.099 285.195 298.16 293.866 299.742 294.48C300.687 294.846 301.996 295.696 302.653 296.368C303.309 297.039 304.022 297.418 304.236 297.208C304.451 296.999 303.5 295.847 302.123 294.649Z" fill="#B72929"/>
</svg>
