<svg width="170" height="227" viewBox="0 0 170 227" fill="none" xmlns="http://www.w3.org/2000/svg">
<path d="M108.444 1.25312C110.365 2.15941 113.959 5.10075 121.056 11.578C128.941 18.7744 132.5 21.499 136.904 23.7097C139.572 25.0491 142.032 25.9406 144.747 26.5514C147.503 27.1715 149.344 28.8138 149.636 30.9128C149.927 33.0032 149.098 35.7142 147.837 36.7973C146.252 38.1592 140.946 42.1 138.166 43.9807C136.462 45.1333 131.298 48.3984 126.69 51.2364C116.233 57.6775 112.064 60.4202 111.255 61.3926C110.251 62.5994 110.469 63.5736 111.954 64.5165C112.887 65.1093 113.028 65.1253 125.543 66.0603C134.028 66.6943 142.785 67.358 148.495 67.7999C151.082 68.0001 154.646 68.267 156.413 68.3929C165.072 69.01 167.587 69.2737 168.11 69.6199C168.531 69.8984 168.675 70.2588 168.788 71.3164C169.591 78.8696 169.805 90.9832 169.283 99.4559C168.801 107.283 168.151 113.28 167.739 113.689C167.569 113.859 166.604 114.133 165.594 114.3L163.758 114.602L163.601 116.108C162.989 122.003 162.852 132.886 162.827 177.441C162.802 220.212 162.771 223.873 162.42 224.413C162.185 224.775 161.753 225.044 161.292 225.117C160.881 225.182 149.803 225.346 136.674 225.482C99.2996 225.868 54.9214 226.367 31.2055 226.667C10.9648 226.923 9.46029 226.915 8.76026 226.549C8.34735 226.334 7.9216 225.923 7.81373 225.637C7.70493 225.348 7.71963 215.471 7.84655 203.46C8.07905 181.438 7.94524 139.726 7.59178 124.022C7.3641 113.91 7.56745 114.621 4.80337 114.268C2.64177 113.991 2.30942 113.86 2.19765 113.244C2.01243 112.223 1.356 106.111 0.987167 101.973C0.244447 93.6386 0.50174 78.4963 1.51988 70.6291C1.68766 69.3325 2.6599 68.3034 4.0673 67.9322C4.54241 67.8068 7.71963 67.5936 11.128 67.4585C14.5363 67.3234 19.4423 67.11 22.0301 66.9844C24.6179 66.8586 29.3689 66.651 32.5879 66.5228C35.8069 66.3947 40.7129 66.1852 43.49 66.0575C46.2672 65.9296 50.9149 65.721 53.8183 65.5943C56.7217 65.4673 59.5104 65.2485 60.0153 65.1076C61.3169 64.745 61.9662 64.0672 61.9662 63.0714C61.9662 62.3807 61.762 62.0542 60.6465 60.9629C59.1617 59.5102 58.1379 58.962 53.7036 57.2453C49.5257 55.6278 40.8255 52.1012 39.1535 51.3471C32.8649 48.5115 23.4985 42.8832 21.9174 40.9902C20.5499 39.3524 20.2681 37.2668 21.1386 35.2239C21.572 34.2068 21.8375 33.9549 23.606 32.8846C32.4215 27.5488 40.96 18.1102 50.0476 3.65591C51.2996 1.66444 51.7077 1.40258 53.5588 1.40258C55.1833 1.40258 56.2834 2.1411 58.7667 4.89844C69.2768 16.5683 77.5918 29.1361 82.8935 41.3656C83.8903 43.6644 85.4395 45.5381 86.5472 45.7838C87.6305 46.0238 88.7861 45.1532 89.7101 43.4007C89.8621 43.1124 90.2433 41.3918 90.5575 39.5771C92.2649 29.7104 94.7382 20.9276 98.1752 12.5256C98.9834 10.5501 99.8794 8.13454 100.166 7.1578C100.834 4.88593 101.606 3.56832 103.026 2.27921C104.831 0.640655 106.482 0.328057 108.444 1.25312Z" fill="#D44040"/>
</svg>
