<svg width="65" height="68" viewBox="0 0 65 68" fill="none" xmlns="http://www.w3.org/2000/svg">
<path fill-rule="evenodd" clip-rule="evenodd" d="M53.3215 1.39278C49.3036 3.50615 47.9829 4.42402 38.3599 11.7896C33.1731 15.76 30.1812 17.6157 28.9598 17.619C27.6015 17.6236 26.0921 16.4846 22.7155 12.9061C19.7726 9.78715 17.8543 8.26555 17.0566 8.41764C15.2223 8.76699 14.6408 12.0134 15.8407 15.2114C16.4054 16.715 17.4206 19.5896 18.0974 21.5986L19.3281 25.2516L17.205 27.4738C16.0381 28.6966 12.0612 32.0313 8.36828 34.8839C4.67539 37.7372 1.27659 40.6934 0.814643 41.4525C-0.20258 43.1269 -0.285838 47.77 0.670284 49.5374C1.053 50.2441 2.0521 50.8219 2.89206 50.8219C3.73135 50.8219 9.19616 47.6837 15.035 43.8482C20.8744 40.0126 26.0183 36.8744 26.4661 36.8744C26.914 36.8744 30.0267 40.2371 33.3832 44.3463C40.3662 52.8961 47.286 59.7522 53.9419 64.7142C58.1592 67.859 58.8252 68.1393 61.6634 67.9573C64.4465 67.7787 64.7896 67.5787 64.9715 66.0306C65.1213 64.7541 64.6949 63.9923 63.338 63.1129C54.7657 57.5572 36.2328 35.0971 36.2328 30.2647C36.2328 28.1526 38.413 26.016 48.6543 18.0899C58.458 10.5031 62.4188 6.76653 62.4188 5.10346C62.4188 3.45301 59.9224 0.601092 58.0027 0.0584701C57.1473 -0.182622 55.3358 0.333434 53.3215 1.39278Z" fill="#643638"/>
</svg>
